<?xml version="1.0" encoding="iso-8859-1"?>
<!-- Generator: Adobe Illustrator 19.0.0, SVG Export Plug-In . SVG Version: 6.00 Build 0)  -->
<svg version="1.1" id="Layer_1" xmlns="http://www.w3.org/2000/svg" xmlns:xlink="http://www.w3.org/1999/xlink" x="0px" y="0px"
	 viewBox="0 0 512.189 512.189" style="enable-background:new 0 0 512.189 512.189;" xml:space="preserve">
<g>
	<g>
		<path d="M276.349,422.392c-0.321-3.307-0.641-6.401-0.748-9.067c-0.64-18.24-1.813-42.453-4.693-66.773
			c-6.4-54.293-23.253-125.867-67.413-158.613c-20.373-15.147-44.373-20.267-71.36-15.36c-38.4,6.933-63.04,38.08-68.907,86.4
			c-6.72-6.827-14.507-13.547-23.04-16.427c-16.213-5.333-25.813,1.6-30.08,6.187c-14.187,15.147-10.56,44.907-5.547,57.387
			c7.573,18.773,20.8,32.853,33.6,46.507c7.467,7.893,14.4,15.467,20.267,23.68c19.947,28.053,27.733,59.947,35.947,93.653
			c2.347,9.6,4.693,19.2,7.36,28.8c2.347,9.173,11.413,14.827,20.587,13.12c28.693-5.44,57.387-13.653,85.227-21.547
			c13.653-3.84,27.2-7.787,40.747-11.307c2.987-0.747,5.973-1.707,8.96-2.773c2.88-1.173,5.547-2.667,7.893-4.587
			C280.082,459.832,277.949,438.179,276.349,422.392z M251.814,454.925c-0.853,0.64-1.707,1.067-2.667,1.493
			c-2.027,0.747-4.16,1.387-6.293,1.92c-13.76,3.627-27.413,7.467-41.173,11.413c-26.24,7.467-53.44,15.147-80.213,20.48
			c-2.24-8.427-4.373-16.96-6.4-25.387c-8.32-34.133-16.96-69.44-39.253-100.907c-6.613-9.387-14.507-17.813-22.08-25.92
			c-11.947-12.8-23.36-24.96-29.44-40c-4.053-9.92-4.16-29.013,1.28-34.773c0.853-0.96,2.133-1.387,3.413-1.28
			c1.493,0,3.093,0.32,4.48,0.853c6.187,2.027,14.507,10.987,20.48,17.493c1.92,2.027,3.733,4.053,5.44,5.76
			c3.84,3.947,9.813,5.227,14.933,3.2c5.227-2.133,8.747-7.147,8.853-12.8c0.747-22.187,7.253-74.667,52.587-82.88
			c21.333-3.84,39.253-0.107,54.933,11.52c40.107,29.76,54.187,102.933,58.987,143.893c2.773,23.573,3.84,47.147,4.48,65.067
			c0.107,3.093,0.427,6.613,0.853,10.347C256.188,435.405,257.681,450.338,251.814,454.925z"/>
	</g>
</g>
<g>
	<g>
		<path d="M490.108,43.831c-11.947-5.547-29.76-3.627-43.733,18.453c-3.307,5.227-6.187,10.667-8.96,16
			c-0.107-0.427-0.213-0.853-0.213-1.28c-1.92-9.6-3.947-19.627-8.32-28.267c-7.893-15.36-22.293-35.413-46.08-43.84
			c-26.24-9.28-51.84-5.333-74.133,11.52c-37.12,27.947-54.72,82.56-52.373,119.68c2.88,46.08,34.24,150.4,43.733,181.227
			c2.347,8,9.707,13.44,18.027,13.44c0.853,0,1.6-0.107,2.453-0.213l132.16-17.173c12.587-1.707,21.653-12.8,20.907-25.387
			c-0.427-9.173-1.067-18.24-1.813-27.413c-1.493-18.987-2.88-36.8-1.6-54.933c1.813-23.467,11.307-42.987,21.44-63.573
			c6.4-13.227,13.12-26.773,17.92-41.92C516.774,77.538,508.028,52.258,490.108,43.831z M489.681,93.645
			c-4.373,13.653-10.667,26.56-16.747,39.04c-10.56,21.547-21.44,43.84-23.467,71.36c-1.493,19.733,0,39.253,1.6,58.24
			c0.747,8.853,1.387,17.813,1.813,26.667c0.213,1.6-0.853,2.987-2.347,3.307l-130.027,16.96
			c-7.893-25.6-39.573-130.773-42.24-174.4c-1.92-31.36,14.293-79.04,43.947-101.333c10.667-8,21.973-12.053,33.92-12.053
			c6.933,0.107,13.76,1.28,20.16,3.627c17.173,6.08,28.053,21.547,34.24,33.493c3.093,5.973,4.8,14.507,6.4,22.72
			c2.133,10.667,4.373,21.76,10.027,30.293c2.027,2.987,5.44,4.8,9.067,4.8c3.627-0.107,7.04-2.027,8.96-5.12
			c3.627-5.973,6.827-12.267,9.813-18.347c3.413-6.72,6.613-13.12,10.347-18.987c2.667-4.267,9.707-13.867,16.64-10.56
			C487.974,66.125,494.481,78.711,489.681,93.645z"/>
	</g>
</g>
<g>
</g>
<g>
</g>
<g>
</g>
<g>
</g>
<g>
</g>
<g>
</g>
<g>
</g>
<g>
</g>
<g>
</g>
<g>
</g>
<g>
</g>
<g>
</g>
<g>
</g>
<g>
</g>
<g>
</g>
</svg>
