<?xml version="1.0" encoding="iso-8859-1"?>
<!-- Generator: Adobe Illustrator 19.0.0, SVG Export Plug-In . SVG Version: 6.00 Build 0)  -->
<svg xmlns="http://www.w3.org/2000/svg" xmlns:xlink="http://www.w3.org/1999/xlink" version="1.1" id="Capa_1" x="0px" y="0px" viewBox="0 0 60 60" style="enable-background:new 0 0 60 60;" xml:space="preserve" width="512px" height="512px">
<g>
	<g>
		<path d="M55,31.5c-0.553,0-1,0.448-1,1v5c0,0.552,0.447,1,1,1s1-0.448,1-1v-5C56,31.948,55.553,31.5,55,31.5z" fill="#2b3027"/>
		<path d="M6,23.5h3c0.553,0,1-0.448,1-1s-0.447-1-1-1H6c-0.553,0-1,0.448-1,1S5.447,23.5,6,23.5z" fill="#2b3027"/>
		<path d="M6,27.5h3c0.553,0,1-0.448,1-1s-0.447-1-1-1H6c-0.553,0-1,0.448-1,1S5.447,27.5,6,27.5z" fill="#2b3027"/>
		<path d="M9,40.5H6c-0.553,0-1,0.448-1,1s0.447,1,1,1h3c0.553,0,1-0.448,1-1S9.553,40.5,9,40.5z" fill="#2b3027"/>
		<path d="M9,44.5H6c-0.553,0-1,0.448-1,1s0.447,1,1,1h3c0.553,0,1-0.448,1-1S9.553,44.5,9,44.5z" fill="#2b3027"/>
		<path d="M7.5,38.5c2.481,0,4.5-2.019,4.5-4.5s-2.019-4.5-4.5-4.5S3,31.519,3,34S5.019,38.5,7.5,38.5z M7.5,31.5    c1.379,0,2.5,1.122,2.5,2.5s-1.121,2.5-2.5,2.5S5,35.378,5,34S6.121,31.5,7.5,31.5z" fill="#2b3027"/>
		<circle cx="7.5" cy="34" r="1.5" fill="#2b3027"/>
		<path d="M55.132,10.5H46v-3h-1V5c0-1.378-1.121-2.5-2.5-2.5S40,3.622,40,5v2.5h-1v3H4.868C2.184,10.5,0,12.684,0,15.368V17.5v33    v2.132C0,55.316,2.184,57.5,4.868,57.5h50.264c2.685,0,4.868-2.184,4.868-4.868V15.368C60,12.684,57.816,10.5,55.132,10.5z M42,5    c0-0.271,0.229-0.5,0.5-0.5S43,4.729,43,5v2.5h-1V5z M41,9.5h3v1v7v17h-3v-17v-7V9.5z M39.208,35.694    c-0.023,0.241,0.015,0.486,0.127,0.712l2.047,4.094H42v2h1v-2h0.618l2.047-4.094c0.113-0.226,0.15-0.471,0.127-0.712    C45.921,35.466,46,35.207,46,34.928V19.5h4v29H15v-29h24v15.428C39,35.207,39.079,35.466,39.208,35.694z M42.5,38.264L41.618,36.5    h1.764L42.5,38.264z M2,15.368C2,13.787,3.287,12.5,4.868,12.5H39v5H15h-2H2V15.368z M13,19.5v29H2v-29H13z M58,52.632    c0,1.582-1.287,2.868-2.868,2.868H4.868C3.287,55.5,2,54.213,2,52.632V50.5h11h2h37v-33h-6v-5h9.132    c1.581,0,2.868,1.287,2.868,2.868V52.632z" fill="#2b3027"/>
	</g>
</g>
<g>
</g>
<g>
</g>
<g>
</g>
<g>
</g>
<g>
</g>
<g>
</g>
<g>
</g>
<g>
</g>
<g>
</g>
<g>
</g>
<g>
</g>
<g>
</g>
<g>
</g>
<g>
</g>
<g>
</g>
</svg>
